<svg width="85" height="30" viewBox="0 0 85 30" fill="none" xmlns="http://www.w3.org/2000/svg">
  <path d="M37.302 7.61936H41.3138V28.4962H37.302V25.8762H37.2202C36.1147 27.4725 33.9458 29.0688 30.343 29.0688C26.4949 29.0688 23.3841 26.8578 23.3841 22.0689V7.61936H27.3959V20.9634C27.3959 23.7879 28.6241 25.6705 31.653 25.6705C35.091 25.6705 37.302 23.5822 37.302 20.4305V7.61812V7.61936ZM45.8163 28.495V7.61812H49.8281V28.495H45.8163ZM49.8095 0.58109V4.55569H45.8349V0.58109H49.8095ZM54.3294 28.495V0.439804H58.3412V28.495H54.3294ZM72.2591 25.2615V28.495C71.2354 28.6995 70.581 28.7404 69.7209 28.7404C66.2817 28.7404 64.1946 27.4304 64.1946 22.6006V10.9346H61.1656V7.61936H64.1946V0.450958H68.2064V7.61936H72.2182V10.9346H68.2064V22.7233C68.2064 24.9343 68.8199 25.4251 70.5401 25.4251C71.2354 25.4251 71.5638 25.3842 72.2591 25.2615ZM84.9884 25.2615V28.495C83.9647 28.6995 83.3103 28.7404 82.4502 28.7404C79.0123 28.7404 76.924 27.4304 76.924 22.6006V10.9346H73.895V7.61936H76.924V0.450958H80.9357V7.61936H84.9475V10.9346H80.9357V22.7233C80.9357 24.9343 81.5505 25.4251 83.2694 25.4251C83.9647 25.4251 84.2931 25.3842 84.9884 25.2615ZM0.629639 3.29651V3.5295H0.958067V3.29651H0.629639ZM15.9418 15.2785V15.2067C18.0784 14.4829 19.961 12.9981 19.961 9.81177C19.961 5.68597 16.8465 3.29651 11.526 3.29651H4.61043V6.7357H11.7069C14.4211 6.7357 15.7968 8.11138 15.7968 10.3918C15.7968 12.6722 14.6752 14.0479 11.4169 14.0479H4.61167V6.7357H0.629639V25.7424H4.61167V17.1983H12.4307C15.1461 17.1983 16.8118 18.7562 16.8118 21.4703C16.8118 23.8957 15.7249 25.7424 11.8879 25.7424H4.61043V29.1816H12.1767C17.5344 29.1816 20.9736 26.5752 20.9736 21.6153C20.9736 17.7411 18.656 15.752 15.9406 15.2798L15.9418 15.2785Z" fill="#012734"/>
</svg>